<?xml version="1.0" standalone="no"?>
<!DOCTYPE svg PUBLIC "-//W3C//DTD SVG 20010904//EN"
 "http://www.w3.org/TR/2001/REC-SVG-20010904/DTD/svg10.dtd">
<svg version="1.0" xmlns="http://www.w3.org/2000/svg"
 width="512.000000pt" height="512.000000pt" viewBox="0 0 512.000000 512.000000"
 preserveAspectRatio="xMidYMid meet">
<metadata>
Created by potrace 1.11, written by Peter Selinger 2001-2013
</metadata>
<g transform="translate(0.000000,512.000000) scale(0.100000,-0.100000)"
fill="#000000" stroke="none">
<path d="M1085 5094 c-42 -45 -80 -175 -100 -340 -3 -27 -8 -62 -10 -79 -4
-28 -12 -170 -21 -345 -5 -104 -5 -1400 1 -1480 4 -76 21 -188 37 -245 5 -22
12 -51 14 -65 3 -14 10 -41 16 -60 16 -51 13 -428 -7 -701 -8 -117 -16 -217
-20 -244 -2 -16 -7 -61 -10 -100 -3 -38 -8 -79 -10 -90 -2 -11 -7 -47 -10 -80
-4 -33 -17 -143 -31 -245 -48 -363 -51 -404 -48 -565 2 -154 7 -189 35 -282
21 -67 77 -135 128 -154 79 -31 171 -14 235 42 49 43 67 86 87 203 11 64 8
344 -4 421 -3 17 -8 55 -11 85 -4 30 -9 71 -11 90 -2 19 -7 58 -11 85 -3 28
-8 61 -9 75 -2 14 -6 54 -10 90 -4 36 -8 72 -10 80 -2 8 -7 51 -10 95 -4 44
-8 96 -10 115 -3 33 -11 130 -20 260 -5 70 -16 407 -19 565 -3 186 3 209 123
466 45 98 88 233 106 337 15 87 20 398 11 607 -5 103 -16 288 -21 335 -2 25
-7 74 -10 110 -3 36 -8 83 -11 105 -3 22 -7 58 -10 80 -13 110 -32 241 -39
275 -3 14 -10 52 -16 85 -31 171 -96 361 -147 429 -27 36 -76 66 -106 66 -10
0 -28 -12 -41 -26z"/>
<path d="M3623 4131 c-190 -49 -370 -338 -448 -722 -4 -21 -16 -114 -21 -159
-5 -57 -5 -243 1 -270 2 -14 8 -38 11 -55 25 -119 120 -236 277 -343 148 -101
142 -90 141 -240 -1 -135 -12 -437 -19 -512 -5 -51 -15 -175 -20 -235 -1 -22
-6 -67 -10 -100 -8 -74 -12 -113 -20 -190 -3 -33 -8 -67 -10 -75 -2 -8 -7 -44
-10 -80 -4 -36 -8 -76 -10 -90 -2 -14 -7 -51 -10 -83 -4 -32 -8 -66 -10 -75
-1 -9 -6 -46 -10 -82 -4 -36 -9 -78 -11 -95 -10 -68 -12 -345 -3 -410 18 -124
48 -205 96 -251 69 -67 176 -79 264 -30 97 55 130 169 129 436 -1 136 -3 179
-14 280 -3 30 -8 82 -11 115 -3 33 -8 76 -10 95 -2 19 -7 60 -10 90 -3 30 -8
71 -10 90 -2 19 -9 80 -14 135 -21 211 -23 230 -26 245 -1 8 -6 68 -10 132 -3
64 -8 129 -10 145 -5 41 -18 438 -19 571 l0 113 34 29 c19 16 75 53 125 82
164 96 252 207 281 358 12 60 13 310 1 365 -3 11 -8 43 -11 70 -11 74 -55 241
-84 315 -117 296 -336 478 -519 431z"/>
<path d="M2096 4039 c-13 -32 -36 -167 -51 -299 -3 -30 -8 -71 -10 -90 -4 -35
-11 -126 -21 -275 -9 -141 -11 -455 -2 -518 12 -86 38 -131 143 -245 51 -56
102 -122 115 -149 22 -47 22 -53 17 -308 -6 -248 -11 -370 -22 -480 -2 -27 -7
-81 -10 -120 -3 -38 -8 -83 -10 -100 -2 -16 -7 -61 -10 -100 -4 -38 -9 -79
-11 -90 -2 -11 -6 -42 -9 -70 -3 -27 -8 -57 -10 -65 -2 -8 -7 -44 -10 -80 -3
-36 -8 -72 -10 -80 -2 -8 -7 -39 -10 -69 -4 -30 -9 -63 -11 -75 -17 -87 -24
-411 -12 -511 28 -224 94 -309 238 -309 93 0 161 39 200 114 56 109 69 416 30
710 -5 41 -12 95 -14 120 -6 58 -15 137 -20 175 -3 17 -7 57 -11 90 -4 33 -8
71 -10 85 -2 14 -7 52 -10 85 -4 33 -8 76 -11 95 -2 19 -6 76 -10 125 -3 50
-8 104 -10 120 -7 59 -18 363 -18 535 0 206 -1 204 107 317 87 90 119 137 148
211 20 52 22 76 22 267 1 181 -7 398 -17 500 -2 17 -6 62 -10 100 -25 252 -50
405 -67 405 -5 0 -9 -6 -10 -12 0 -7 -2 -29 -4 -48 -3 -35 -10 -163 -20 -375
-10 -198 -15 -279 -21 -325 -15 -116 -21 -142 -38 -159 -13 -13 -16 -11 -26
13 -17 45 -26 151 -35 396 -15 425 -21 506 -35 515 -16 10 -25 -76 -35 -330
-3 -77 -8 -187 -11 -245 -13 -297 -54 -438 -91 -312 -17 62 -22 125 -28 377
-9 375 -14 485 -24 502 -8 14 -9 14 -14 -3 -10 -34 -23 -170 -32 -344 -3 -58
-7 -134 -10 -170 -2 -36 -7 -104 -10 -152 -3 -48 -8 -95 -9 -105 -2 -10 -7
-40 -11 -68 -8 -60 -31 -98 -45 -75 -27 43 -37 158 -45 550 -6 270 -11 369
-20 378 -2 3 -11 -10 -19 -29z"/>
</g>
</svg>
