<?xml version="1.0" encoding="iso-8859-1"?>
<!-- Generator: Adobe Illustrator 18.0.0, SVG Export Plug-In . SVG Version: 6.00 Build 0)  -->
<!DOCTYPE svg PUBLIC "-//W3C//DTD SVG 1.1//EN" "http://www.w3.org/Graphics/SVG/1.1/DTD/svg11.dtd">
<svg version="1.1" id="Capa_1" xmlns="http://www.w3.org/2000/svg" xmlns:xlink="http://www.w3.org/1999/xlink" x="0px" y="0px"
	 viewBox="0 0 496.639 496.639" style="enable-background:new 0 0 496.639 496.639;" xml:space="preserve">
<g id="XMLID_28_">
	<path id="XMLID_40_" d="M128.253,250.194c-7.661,25.718,0.355,44.177,12.078,49.665c12.03,5.745,22.121-2.986,27.447-27.672
		c5.223-24.301-5.061-52.923-4.868-53.269C163.144,219.119,136.244,224.751,128.253,250.194z"/>
	<path id="XMLID_39_" d="M108.249,178.161c-11.7,21.501-8.336,39.381,0.877,46.669c9.423,7.573,20.165,2.093,29.797-18.917
		c9.463-20.688,5.698-48.899,5.938-49.157C144.99,156.949,120.19,156.924,108.249,178.161z"/>
	<path id="XMLID_38_" d="M95.471,152.065c6.533,8.08,16.495,5.52,28.139-10.838c11.475-16.15,12.883-41.626,13.1-41.81
		c0.073,0.17-20.663-3.629-34.094,12.698C89.339,128.626,89.074,144.212,95.471,152.065z"/>
	<path id="XMLID_37_" d="M74.687,317.874c26.023,16.022,38.351,9.367,39.557-4.047c1.32-13.878-7.958-29.948-31.213-47.192
		c-23.061-17.688-48.087-9.753-48.175-9.423C34.3,257.091,48.044,301.676,74.687,317.874z"/>
	<path id="XMLID_36_" d="M83.12,231.839c3.991-11.925-0.966-28.083-18.202-47.885c-16.987-20.142-40.668-17.791-40.781-17.551
		c-0.45-0.168,3.147,41.569,23.271,61.01C67.083,246.646,79.289,243.403,83.12,231.839z"/>
	<path id="XMLID_35_" d="M72.289,153.352c5.423-9.276,4.079-23.866-7.105-43.387C54.192,90.235,33.946,88.642,33.801,88.81
		c-0.29-0.16-3.887,35.1,9.487,54.661C56.356,162.791,67.034,162.389,72.289,153.352z"/>
	<path id="XMLID_32_" d="M416.581,213.212c-14.09-13.124-24.8-29.604-30.996-47.847l-0.031-0.087
		c-12.827-37.754-14.872-78.342-5.906-117.207c1.262-5.465-0.042-11.201-3.533-15.586c-0.218-0.274-0.506-0.475-0.732-0.74
		c6.116-2.406,10.476-8.297,10.476-15.265C385.858,7.377,378.48,0,369.378,0h-38.414c-9.102,0-16.479,7.377-16.479,16.479
		c0,6.967,4.352,12.859,10.468,15.265c-0.232,0.266-0.522,0.466-0.74,0.74c-3.492,4.394-4.788,10.13-3.525,15.594
		c8.973,38.866,6.928,79.436-5.898,117.183l-0.031,0.097c-6.236,18.361-16.817,34.632-31.004,47.845
		c-33.667,31.366-55.964,85.851-55.964,147.865c0,44.989,11.725,86.035,31.027,117.151c7.106,11.458,19.642,18.419,33.129,18.419
		h116.435c13.462,0,26.031-6.976,33.128-18.419c19.305-31.117,31.028-72.163,31.028-117.151
		C472.538,299.054,450.249,244.578,416.581,213.212z M350.172,432.177c-29.732,0-53.84-38.39-53.84-85.753
		c0-47.363,24.108-85.752,53.84-85.752c29.724,0,53.832,38.389,53.832,85.752C404.003,393.787,379.896,432.177,350.172,432.177z"/>
	<path id="XMLID_29_" d="M199.843,413.92c-1.809-9.496-3.065-19.209-3.893-29.032C118.817,308.276,78.6,196.412,91.032,84.678
		c6.497-2.82,12.221-13.17,16.654-32.777c5.504-24.043-0.934-49.076-0.877-49.31c0.129-0.249-22.385,15.505-28.654,42.455
		c-4.768,21.18-1.947,33.513,3.481,38.22c-11.976,86.66,7.253,176.264,51.687,249.327c-17.63,2.47-28.46,20.117-31.881,26.659
		c-14.782-3.171-32.814,9.359-42.092,30.304c-10.147,22.9-5.915,46.992,9.455,53.799c11.33,5.021,25.516-0.813,36.267-13.365
		c0.023,0.386-0.017,0.748,0.016,1.133c1.995,24.977,17.204,44.145,33.964,42.793c16.762-1.343,28.718-22.676,26.716-47.66
		c-1.851-23.126-15.055-41.054-30.297-42.542c-1.737-9.552-3.612-28.639,5.489-38.625
		C157.551,370.137,177.377,393.192,199.843,413.92z M126.796,384.621c-2.237,0.756-4.385,1.786-6.356,3.243
		c-0.322-10.847-4.177-19.98-11.048-25.049c2.768-5.19,10.71-17.655,22.788-20.881C123.256,354.737,124.97,374.217,126.796,384.621z
		"/>
</g>
<g>
</g>
<g>
</g>
<g>
</g>
<g>
</g>
<g>
</g>
<g>
</g>
<g>
</g>
<g>
</g>
<g>
</g>
<g>
</g>
<g>
</g>
<g>
</g>
<g>
</g>
<g>
</g>
<g>
</g>
</svg>
